<svg width="41" height="41" fill="currentColor" xmlns="http://www.w3.org/2000/svg"><path d="M18.789 28.682l-1.038-2.38-.316-.724a5.229 5.229 0 0 1-.44-2.103V11.993a.8.8 0 0 0-.8-.8h-3.32V3.81a2.21 2.21 0 0 1 2.208-2.208h12.799A2.21 2.21 0 0 1 30.09 3.81v1.95a.8.8 0 1 0 1.602 0V3.81c0-2.101-1.71-3.81-3.81-3.81H15.083c-2.1 0-3.81 1.709-3.81 3.81v7.382h-3.32a.8.8 0 0 0-.8.8v11.483c0 .728-.148 1.435-.439 2.103l-1.478 3.388a.8.8 0 0 0 1.468.641l.953-2.184h3.617v9.378a.8.8 0 1 0 1.601 0v-9.378h3.617l1.01 2.314 2.858 6.55a2.218 2.218 0 0 1 .185.89 2.224 2.224 0 0 1-2.222 2.221H5.825a2.243 2.243 0 0 1-2.078-1.435 2.218 2.218 0 0 1 .042-1.675l.004-.01a.8.8 0 1 0-1.468-.64l-.004.01a3.8 3.8 0 0 0-.272 2.126 3.794 3.794 0 0 0 1.073 2.107 3.8 3.8 0 0 0 2.553 1.115c.05.002.1.004.15.004h12.498a3.828 3.828 0 0 0 3.505-5.352l-3.04-6.966zm-10.45-2.86c.275-.753.415-1.54.415-2.347V12.794h2.52V25.82H8.338zm4.536-13.028h2.52v10.68c0 .808.14 1.595.415 2.347h-2.935V12.794z" fill="#93c5fd"/><path d="M36.202 33.435h-.462c.302-.225.591-.472.864-.742a8.072 8.072 0 0 0 2.397-5.124 8.2 8.2 0 0 0-.09-2.05 8.101 8.101 0 0 0-3.663-5.495 3.05 3.05 0 0 1-1.406-2.596V9.503a.8.8 0 0 0-.801-.8H28.74a.8.8 0 0 0-.801.8v7.908c0 1.077-.527 2.054-1.408 2.614a8.122 8.122 0 0 0-3.58 5.082 8.116 8.116 0 0 0 .074 3.883 8.163 8.163 0 0 0 3.023 4.445h-.307a.8.8 0 0 0-.743 1.101l.977 2.416V40.2a.8.8 0 1 0 1.601 0v-2.602h6.785V40.2a.8.8 0 1 0 1.602 0v-3.233l.982-2.43a.802.802 0 0 0-.743-1.1zm-1.187 1.602l-.388.959h-7.311l-.388-.959h8.087zm-10.203-5.74a6.54 6.54 0 0 1-.428-3.032l.017-.155.003-.022h12.973l.014.12a6.565 6.565 0 0 1-.296 2.749 6.586 6.586 0 0 1-2.953 3.61 6.456 6.456 0 0 1-2.355.806 6.674 6.674 0 0 1-3.127-.33 6.56 6.56 0 0 1-2.451-1.597 6.576 6.576 0 0 1-1.397-2.149zm2.578-7.92c1.346-.855 2.15-2.338 2.15-3.966v-7.107h2.7v7.124c0 1.618.803 3.093 2.15 3.948a6.526 6.526 0 0 1 2.58 3.11H24.813a6.532 6.532 0 0 1 2.577-3.109zM3.733 32.936c.128.308.443.51.777.494a.81.81 0 0 0 .724-.555.808.808 0 0 0-.292-.893.81.81 0 0 0-.899-.028.808.808 0 0 0-.31.982z" fill="#93c5fd"/></svg>