<svg width="41" height="41" fill="#93c5fd" xmlns="http://www.w3.org/2000/svg"><g clip-path="url(#clip0)" fill="#93c5fd" stroke="#93c5fd" stroke-width=".1" stroke-linecap="round" stroke-linejoin="round"><path d="M40.4 39.749h-1.918v-8.183a1.93 1.93 0 0 0 .642-1.437 1.937 1.937 0 0 0-1.934-1.935h-3.882l-.604-9.66a.65.65 0 0 0-.65-.61h-2.567a.65.65 0 0 0-.65.61l-.603 9.66h-1.346l-.603-9.66a.65.65 0 0 0-.65-.61h-2.567a.65.65 0 0 0-.65.61l-.603 9.66h-1.346l-.604-9.66a.65.65 0 0 0-.649-.61H16.65a.65.65 0 0 0-.65.61l-.604 9.66H13.82L13.447 11.5a.65.65 0 0 0-.65-.636H8.946a.65.65 0 0 0-.65.636l-.429 19.263H3.168a1.937 1.937 0 0 0-1.934 1.934c0 .57.248 1.084.642 1.438v5.615H.6a.65.65 0 0 0 0 1.301h39.798a.65.65 0 0 0 0-1.301zM7.837 32.063L7.81 33.33H5.736a.65.65 0 0 0 0 1.3h2.045l-.114 5.119h-4.49V34.63a.65.65 0 0 0-.009-1.301.634.634 0 0 1 0-1.267h4.67zm21.7-3.869l.56-8.97h1.345l.56 8.97h-2.466zm-6.42 0l.56-8.97h1.346l.56 8.97h-2.466zm-6.419 0l.56-8.97h1.346l.56 8.97H16.7zM10.221 39.75H8.969l.613-27.585h2.579l.356 16.03h-1.004A1.937 1.937 0 0 0 9.58 30.13c0 .57.248 1.083.642 1.437v8.183zm26.969-8.987h-1.284a.65.65 0 0 0 0 1.301h1.275v7.686h-25.66v-7.686H33.34a.65.65 0 0 0 0-1.301H11.513a.634.634 0 0 1 0-1.267H37.19a.634.634 0 0 1 0 1.267zM11.835 7.764a.62.62 0 0 0-.322-.094.634.634 0 0 0-.633.634.65.65 0 1 1-1.302 0 1.937 1.937 0 0 1 2.1-1.927 2.895 2.895 0 0 1 2.724-1.934c.24 0 .478.031.71.092a4.504 4.504 0 0 1 4.104-2.66 4.5 4.5 0 0 1 1.748.356 5.777 5.777 0 0 1 4.03-1.64 5.76 5.76 0 0 1 3.43 1.134A7.662 7.662 0 0 1 33.337-.05c4.252 0 7.712 3.46 7.712 7.712s-3.46 7.711-7.712 7.711a7.712 7.712 0 0 1-6.475-3.523 5.71 5.71 0 0 1-1.87.314 5.777 5.777 0 0 1-4.029-1.64 4.5 4.5 0 0 1-1.748.356 4.46 4.46 0 0 1-3.083-1.225 2.856 2.856 0 0 1-1.731.583.65.65 0 0 1 0-1.301c.485 0 .94-.225 1.25-.619a.65.65 0 0 1 .511-.249h.003a.65.65 0 0 1 .513.254 3.179 3.179 0 0 0 2.537 1.256 3.2 3.2 0 0 0 1.572-.415.65.65 0 0 1 .813.14 4.482 4.482 0 0 0 3.392 1.559c.646 0 1.276-.14 1.872-.414a.65.65 0 0 1 .843.28 6.413 6.413 0 0 0 5.63 3.343 6.418 6.418 0 0 0 6.41-6.41 6.418 6.418 0 0 0-6.41-6.41 6.376 6.376 0 0 0-4.445 1.797l-.034-.036.034.036a.65.65 0 0 1-.889.013l.034-.037-.034.037a4.47 4.47 0 0 0-3.01-1.169c-1.302 0-2.538.568-3.393 1.558l-.038-.033a.6.6 0 0 1-.75.13l-8.978 4.216zm0 0a.65.65 0 0 0 .637.017m-.637-.017l.637.017m0 0a.65.65 0 0 0 .346-.536l-.346.536z"/><path d="M15.365 33.33a.65.65 0 0 0-.651.65v1.284a.65.65 0 0 0 1.301 0V33.98a.65.65 0 0 0-.65-.65zM17.932 33.33a.65.65 0 0 0-.65.65v1.284a.65.65 0 0 0 1.301 0V33.98a.65.65 0 0 0-.65-.65zM20.5 33.33a.65.65 0 0 0-.65.65v1.284a.65.65 0 0 0 1.3 0V33.98a.65.65 0 0 0-.65-.65zM23.068 33.33a.65.65 0 0 0-.651.65v1.284a.65.65 0 0 0 1.301 0V33.98a.65.65 0 0 0-.65-.65zM25.635 33.33a.65.65 0 0 0-.65.65v1.284a.65.65 0 1 0 1.301 0V33.98a.65.65 0 0 0-.65-.65zM28.203 33.33a.65.65 0 0 0-.65.65v1.284a.65.65 0 0 0 1.3 0V33.98a.65.65 0 0 0-.65-.65zM30.77 33.33a.65.65 0 0 0-.65.65v1.284a.65.65 0 0 0 1.301 0V33.98a.65.65 0 0 0-.65-.65zM33.338 33.33a.65.65 0 0 0-.65.65v1.284a.65.65 0 0 0 1.3 0V33.98a.65.65 0 0 0-.65-.65z"/></g><defs><clipPath id="clip0"><path fill="currentColor" d="M0 0h41v41H0z"/></clipPath></defs></svg>