<svg width="41" height="41" fill="#93c5fd" xmlns="http://www.w3.org/2000/svg"><g clip-path="url(#clip0)" fill="#93c5fd" stroke="#93c5fd" stroke-width=".1"><path d="M14 32.95c1.13 0 2.05.92 2.05 2.05s-.92 2.05-2.05 2.05-2.05-.92-2.05-2.05.92-2.05 2.05-2.05zm0 2.8a.75.75 0 1 0-.002-1.502A.75.75 0 0 0 14 35.75z"/><path d="M1.074 32.16h.165v-5.125c0-1.654.972-3.15 2.477-3.813l.008-.003 5.691-1.424a1.895 1.895 0 0 0 1.027-1.13l.047.016-.047-.016 2.316-6.904a3.273 3.273 0 0 1 3.1-2.241h6.099c.056 0 .111.004.165.01V5.947c0-1.1.89-1.997 1.983-1.997h4.297c1.095 0 1.984.896 1.984 1.997s-.89 1.998-1.984 1.998H26.09V26.8c0 .386-.31.7-.694.7a.697.697 0 0 1-.695-.7V7.246c0-.386.31-.7.695-.7h3.007a.597.597 0 0 0 .595-.599c0-.33-.267-.599-.595-.599h-4.297a.597.597 0 0 0-.594.6v23.275c.188-.06.387-.092.595-.092h.523c1.094 0 1.983.897 1.983 1.998v.599H29.34a4.92 4.92 0 0 1 3.669-1.645c1.455 0 2.764.636 3.67 1.646a.41.41 0 0 1 .025-.001h3.223c.62 0 1.124.508 1.124 1.132v1.73a1.13 1.13 0 0 1-1.124 1.133h-2.014c-.32 2.438-2.396 4.327-4.904 4.327s-4.584-1.889-4.904-4.327h-2.186a.697.697 0 0 1-.695-.7V31.13c0-.331-.267-.6-.594-.6h-.524a.597.597 0 0 0-.594.6v3.195h.4c.383 0 .694.314.694.7 0 .385-.31.699-.695.699h-5.342c-.32 2.438-2.396 4.327-4.904 4.327S9.08 38.161 8.76 35.723H1.074A1.13 1.13 0 0 1-.05 34.59v-1.299a1.13 1.13 0 0 1 1.124-1.131zm10.684-11.047l-.047-.016.047.015a3.295 3.295 0 0 1-1.79 1.966l-.008.003-5.69 1.424a2.763 2.763 0 0 0-1.642 2.53v4.26h1.454c.62 0 1.124.508 1.124 1.132v1.897h3.566c.357-2.396 2.414-4.24 4.892-4.24s4.535 1.844 4.892 4.24h3.566v-21.24a.166.166 0 0 0-.165-.166h-6.099c-.808 0-1.526.518-1.784 1.29l-2.316 6.905zm27.903 12.013h-2.097c.16.378.274.78.337 1.198h1.76v-1.198zm-6.653 5.526c1.962 0 3.56-1.608 3.56-3.585 0-1.977-1.598-3.585-3.56-3.585-1.963 0-3.56 1.608-3.56 3.585 0 1.977 1.597 3.585 3.56 3.585zm-6.396-4.328h1.503c.063-.418.177-.82.336-1.198h-1.838v1.198zm-23.984 0h1.19v-1.63h-1.19v1.63zm11.036 4.328c1.962 0 3.56-1.608 3.56-3.585 0-1.977-1.598-3.585-3.56-3.585s-3.56 1.608-3.56 3.585c0 1.977 1.598 3.585 3.56 3.585z"/><path d="M33 32.95c1.13 0 2.05.92 2.05 2.05s-.92 2.05-2.05 2.05-2.05-.92-2.05-2.05.92-2.05 2.05-2.05zm0 2.8a.75.75 0 1 0-.002-1.502A.75.75 0 0 0 33 35.75zM13.11 23.707h.001a.87.87 0 0 0 .695.343h6.387c.47 0 .857-.368.857-.826v-6.448c0-.458-.386-.826-.857-.826h-3.94c-.477 0-.9.291-1.053.728l-2.09 7.029zm0 0a.802.802 0 0 1-.115-.747l2.205-6.282-2.09 7.029zm6.566-6.433H16.44l-1.913 5.451h5.15v-5.45zM17.95 26c0-.285.084-.546.222-.736.138-.19.333-.314.554-.314h1.548c.22 0 .416.123.554.314.138.19.222.45.222.736 0 .285-.084.546-.222.736-.138.19-.333.314-.554.314h-1.548c-.22 0-.416-.123-.554-.314A1.262 1.262 0 0 1 17.95 26z"/></g><defs><clipPath id="clip0"><path fill="#fff" transform="matrix(-1 0 0 1 41 0)" d="M0 0h41v41H0z"/></clipPath></defs></svg>