<svg width="173" height="53" fill="none" xmlns="http://www.w3.org/2000/svg"><path fill="#fff" d="M72 0h101v53H72z"/><path d="M78.022 40.264v-5.25a8.25 8.25 0 0 0 1.678 1.157c.66.343 1.356.636 2.087.879.732.229 1.463.407 2.195.536.732.128 1.406.193 2.023.193 2.152 0 3.751-.358 4.798-1.072 1.062-.714 1.593-1.75 1.593-3.107 0-.729-.18-1.357-.538-1.886-.345-.543-.832-1.035-1.463-1.478a14.655 14.655 0 0 0-2.238-1.265c-.847-.414-1.758-.842-2.733-1.285a45.246 45.246 0 0 1-2.927-1.693 13.174 13.174 0 0 1-2.367-1.886 8.369 8.369 0 0 1-1.57-2.357c-.374-.871-.56-1.893-.56-3.064 0-1.443.323-2.693.968-3.75A8.255 8.255 0 0 1 81.55 12.3c1.076-.7 2.296-1.214 3.659-1.543a17.047 17.047 0 0 1 4.174-.514c3.228 0 5.58.364 7.058 1.093v5.035c-1.75-1.257-4.002-1.885-6.757-1.885-.76 0-1.52.071-2.28.214a6.915 6.915 0 0 0-2.023.707 4.406 4.406 0 0 0-1.442 1.264c-.373.515-.56 1.136-.56 1.865 0 .685.144 1.278.431 1.778.287.5.703.957 1.248 1.372.56.414 1.234.821 2.023 1.221.803.386 1.728.807 2.776 1.264a35.92 35.92 0 0 1 3.034 1.758c.96.614 1.8 1.292 2.517 2.035a8.6 8.6 0 0 1 1.722 2.486c.43.9.645 1.929.645 3.086 0 1.557-.315 2.871-.946 3.943a7.583 7.583 0 0 1-2.561 2.614c-1.062.671-2.288 1.157-3.68 1.457-1.391.3-2.862.45-4.411.45-.517 0-1.155-.043-1.915-.129a23.04 23.04 0 0 1-2.303-.342 19.754 19.754 0 0 1-2.237-.536c-.703-.214-1.27-.457-1.7-.729zM112.666 42c-3.4 0-6.118-1.021-8.155-3.064-2.023-2.057-3.034-4.779-3.034-8.165 0-3.685 1.054-6.564 3.163-8.635 2.123-2.072 4.978-3.107 8.564-3.107 3.443 0 6.126 1.007 8.048 3.021 1.922 2.014 2.883 4.807 2.883 8.379 0 3.5-1.04 6.307-3.12 8.421-2.066 2.1-4.849 3.15-8.349 3.15zm.237-19.007c-1.951 0-3.493.678-4.627 2.036-1.133 1.357-1.7 3.228-1.7 5.614 0 2.3.574 4.114 1.722 5.443 1.148 1.314 2.682 1.971 4.605 1.971 1.965 0 3.471-.65 4.519-1.95 1.061-1.3 1.592-3.15 1.592-5.55 0-2.414-.531-4.278-1.592-5.593-1.048-1.314-2.554-1.971-4.519-1.971zM142.017 24.279c-.602-.472-1.47-.708-2.604-.708-1.477 0-2.711.665-3.701 1.993-.99 1.329-1.484 3.136-1.484 5.422v10.5h-4.993V19.543h4.993v4.521h.086c.487-1.543 1.233-2.743 2.237-3.6 1.019-.871 2.152-1.307 3.4-1.307.904 0 1.593.136 2.066.407v4.715zM150.625 38.314h-.087v3.172h-4.992V9h4.992v14.4h.087c1.707-2.914 4.203-4.371 7.488-4.371 2.783 0 4.956.985 6.52 2.957C166.211 23.943 167 26.57 167 29.87c0 3.672-.882 6.615-2.647 8.829-1.764 2.2-4.174 3.3-7.23 3.3-2.869 0-5.035-1.229-6.498-3.686zm-.13-8.721v2.721c0 1.6.51 2.957 1.528 4.072 1.033 1.114 2.339 1.671 3.917 1.671 1.85 0 3.299-.714 4.346-2.143 1.062-1.443 1.593-3.45 1.593-6.021 0-2.157-.495-3.843-1.485-5.057-.976-1.229-2.303-1.843-3.981-1.843-1.779 0-3.213.628-4.304 1.886-1.076 1.257-1.614 2.828-1.614 4.714z" fill="#000"/><path fill="#F41328" d="M0 0h72v53H0z"/><path d="M36.005 41.466h-5.853l-2.893-8.128H14.61l-2.78 8.128H6L18.042 9.534h6.01l11.953 31.932zM25.846 29.018l-4.462-12.737c-.135-.415-.277-1.083-.427-2.004h-.09c-.134.847-.283 1.514-.448 2.004l-4.418 12.737h9.845zM65 39.283C61.651 41.094 57.921 42 53.81 42c-4.754 0-8.604-1.47-11.549-4.409-2.945-2.94-4.418-6.829-4.418-11.668 0-4.943 1.607-8.996 4.822-12.158C45.894 10.588 49.99 9 54.954 9c3.573 0 6.578.52 9.014 1.559v5.455c-2.466-1.633-5.404-2.45-8.813-2.45-3.423 0-6.234 1.122-8.431 3.363-2.183 2.242-3.274 5.144-3.274 8.707 0 3.666.941 6.554 2.825 8.661 1.884 2.094 4.44 3.14 7.67 3.14 2.212 0 4.126-.423 5.74-1.269v-7.593h-6.772v-4.454H65v15.164z" fill="#fff"/></svg>