<svg width="41" height="41" fill="#93c5fd" xmlns="http://www.w3.org/2000/svg"><g clip-path="url(#clip0)" fill="#93c5fd"><path d="M31.407 37.149a1.511 1.511 0 0 1-2.135 0 3.115 3.115 0 0 0-4.4 0 1.512 1.512 0 0 1-2.136 0 3.09 3.09 0 0 0-2.2-.911 3.09 3.09 0 0 0-2.2.911 1.511 1.511 0 0 1-2.135 0 3.115 3.115 0 0 0-4.401 0 1.511 1.511 0 0 1-2.135 0 .8.8 0 1 0-1.133 1.133 3.115 3.115 0 0 0 4.4 0A1.5 1.5 0 0 1 14 37.839a1.5 1.5 0 0 1 1.068.443 3.115 3.115 0 0 0 4.4 0 1.5 1.5 0 0 1 1.068-.443 1.5 1.5 0 0 1 1.067.443 3.09 3.09 0 0 0 2.2.91 3.09 3.09 0 0 0 2.2-.91 1.512 1.512 0 0 1 2.136 0 3.115 3.115 0 0 0 4.4 0 .801.801 0 0 0-1.132-1.133zM40.2 25.156a.8.8 0 0 0 .8-.801V18.79v-.013a.809.809 0 0 0-.947-.774l-.015.002-9.555 1.777h-3.337L24.395 6.69a.8.8 0 0 0-.784-.636h-1.43V2.643a.8.8 0 0 0-1.602 0v3.412h-1.346a.8.8 0 0 0-.782.631l-1.733 8.006a3.694 3.694 0 0 0-3.203-2.13L1.072 8.416a.81.81 0 0 0-1.054.763v8.3a.8.8 0 1 0 1.601 0v-6.56l8.066 6.929v6.647H7.57a.8.8 0 0 0-.801.8v3.18a.8.8 0 0 0 .8.801h2.115v3.095l-.019-.018a3.091 3.091 0 0 0-2.2-.91 3.09 3.09 0 0 0-2.2.91 1.5 1.5 0 0 1-1.068.443 1.5 1.5 0 0 1-1.068-.443 3.116 3.116 0 0 0-2.372-.906.8.8 0 0 0 .088 1.599c.428-.024.849.137 1.152.44.588.587 1.37.911 2.2.911.831 0 1.612-.324 2.2-.91a1.511 1.511 0 0 1 2.135 0 3.09 3.09 0 0 0 2.2.91c.832 0 1.613-.324 2.201-.91a1.507 1.507 0 0 1 1.203-.436l.02.002c.333.034.657.178.912.433.588.587 1.37.911 2.2.911.831 0 1.613-.324 2.2-.91a1.511 1.511 0 0 1 2.136 0c.588.587 1.369.91 2.2.91a3.09 3.09 0 0 0 2.2-.91c.351-.352.832-.492 1.29-.424.269.038.52.15.731.32.1.08.187.176.284.26a3.101 3.101 0 0 0 2.59.703 3.09 3.09 0 0 0 1.64-.86 1.511 1.511 0 0 1 2.136 0c.588.588 1.37.911 2.2.911.831 0 1.613-.323 2.2-.91.273-.274.704-.443 1.124-.443a.8.8 0 1 0 0-1.602c-.842 0-1.685.34-2.256.912a1.5 1.5 0 0 1-1.068.442 1.5 1.5 0 0 1-1.067-.442 3.091 3.091 0 0 0-2.2-.912c-.595 0-1.164.167-1.655.476v-2.642h2.496a.8.8 0 0 0 .8-.8v-3.18a.8.8 0 0 0-.8-.8h-1.273l6.222-4.2v4.06c0 .442.36.8.801.8zm-10.444-.662h-2.46v-3.11h2.46v3.11zm-12.692 0v-3.11h8.631v3.11h-8.63zm1.814-12.208l2.914.001-3.37 2.105.456-2.106zm4.298-3.606l.422 2.006h-3.02l2.598-2.006zm1.386 6.594h-4.53l4.005-2.5.525 2.5zm.947 4.508h-4.87l4.352-2.47.518 2.47zm-8.253 0l.629-2.906h4.63l-5.122 2.906h-.137zM21.88 7.656l-2.403 1.856.401-1.856h2.002zm-6.418 8.593v.43h-4.177v-.43a2.09 2.09 0 0 1 2.088-2.088 2.09 2.09 0 0 1 2.089 2.088zm-4.451-2.833a3.676 3.676 0 0 0-1.287 2.296l-.009.05-5.283-4.54 6.579 2.194zm.274 4.864h4.176v6.214h-4.176V18.28zm2.202 10.995v2.208a3.085 3.085 0 0 0-1.44.648c-.22.176-.398.385-.654.51a1.47 1.47 0 0 1-.1.045l-.008.003v-3.414h2.202zm16.863 3.52h-.012a1.5 1.5 0 0 1-1.067-.443 3.091 3.091 0 0 0-1.123-.717v-2.36h2.202v3.52zm3.297-5.122h-9.149a.8.8 0 1 0 0 1.602h2.049v2.213a3.097 3.097 0 0 0-1.677.864 1.5 1.5 0 0 1-1.067.442 1.5 1.5 0 0 1-1.068-.442 3.115 3.115 0 0 0-4.4 0 1.5 1.5 0 0 1-1.068.442c-.403 0-.782-.157-1.067-.442a3.088 3.088 0 0 0-1.111-.713v-2.364h2.206a.8.8 0 1 0 0-1.602H8.37v-1.578h25.278v1.579zm-2.29-3.884v-2.54l5.198-.967-5.199 3.506z"/><path d="M21.617 28.167a.808.808 0 0 0-.782-.493.808.808 0 0 0-.723.567.807.807 0 0 0 .29.876.808.808 0 0 0 .898.037.809.809 0 0 0 .317-.987z"/></g><defs><clipPath id="clip0"><path fill="#fff" d="M0 0h41v41H0z"/></clipPath></defs></svg>