<svg width="41" height="41" fill="#93c5fd" xmlns="http://www.w3.org/2000/svg"><path d="M40.42 26.655l-4.488-1.281 5.045-20.505v-.004l.01-.046.006-.034.002-.026a.799.799 0 0 0-.023-.29l-.908-3.395a.8.8 0 0 0-.98-.566l-14.98 3.997a4.574 4.574 0 0 0-.664-.468 4.513 4.513 0 0 0-6.509 2.387L7.393 8.967 5.85 3.195a.8.8 0 0 0-.98-.567L.605 3.768a.8.8 0 0 0-.594.75c-.186 6.051 1.808 10.16 3.515 12.542 1.867 2.607 3.786 3.765 3.867 3.813a.8.8 0 0 0 .616.085l1.645-.44a.8.8 0 0 0 .567-.981L8.716 13.91l9.523-2.54c.05.043.1.085.151.125l-1.151 5.86a.05.05 0 0 0-.002.007L14.814 29.69a.372.372 0 0 1-.002.009l-1.137 5.788h-2.791a.8.8 0 0 0-.8.801v2.58H.803a.8.8 0 1 0 0 1.602H40.2a.8.8 0 0 0 .801-.8V27.424a.8.8 0 0 0-.58-.77zM7.945 19.317c-1.243-.882-6.4-5.096-6.344-14.157l2.907-.778 3.959 14.795-.522.14zm31.452 8.712v2.564l-4.45 1.27a2.7 2.7 0 0 1-2.207-.51 2.572 2.572 0 0 1 0-4.085 2.706 2.706 0 0 1 1.206-.529l-.585 2.38a.8.8 0 1 0 1.554.383l.633-2.572 3.85 1.1zm-.18-23.918l-3.751 1.002a.8.8 0 1 0 .413 1.547l3.218-.859-4.748 19.3c-.929.01-1.837.32-2.589.9a4.172 4.172 0 0 0 0 6.62 4.3 4.3 0 0 0 3.6.79l.19-.054v5.512h-3.263v-2.58a.8.8 0 0 0-.8-.802h-2.852l-2.44-12.412v-.002L24.214 12.99v-.006l-.286-1.452a4.545 4.545 0 0 0 1.512-2.086l3.503-.935a.8.8 0 1 0-.413-1.547l-2.838.757a4.54 4.54 0 0 0-.5-1.849l13.531-3.61.495 1.85zm-17.447 8.315c.2-.027.399-.067.594-.12l.079-.022.104.532-3.313 2.686.635-3.23c.61.187 1.253.24 1.892.155l.01-.001zm5.233 23.061h-9.398l8.525-4.44.873 4.44zm-1.267-6.446h-7.51l6.633-4.461.877 4.461zm-1.298-6.602l-5.197-.015 4.51-3.482.687 3.497zm-1.124-5.723h-3.033l2.616-2.122.417 2.122zm-4.633 1.601h3.258L18.1 21.282l.583-2.965zM17.56 24.02l5.238.016-6.04 4.061.802-4.077zm-1.301 6.623h7.18l-8 4.166.82-4.166zm4.167-25.511a2.9 2.9 0 0 1 2.212.292c.246.141.465.315.656.515l.004.006c.207.218.38.468.51.74.642 1.285.164 2.91-1.02 3.694a2.93 2.93 0 0 1-2.167.43 2.943 2.943 0 0 1-1.753-1.086 2.932 2.932 0 0 1-.533-2.408 2.918 2.918 0 0 1 2.091-2.183zm-3.758 3.02c.029.642.197 1.278.489 1.85l-8.855 2.362-.495-1.85 8.86-2.362zm-4.984 30.717v-1.78H30.687v1.78H11.685zm25.468 0v-5.97l2.245-.64v6.61h-2.245z" fill="#93c5fd"/><path d="M31.45 7.185c.129.308.445.511.78.493a.81.81 0 0 0 .726-.567.807.807 0 0 0-.279-.867.81.81 0 0 0-.953-.016.808.808 0 0 0-.273.957z" fill="#93c5fd"/></svg>