<svg width="41" height="41" fill="#93c5fd" xmlns="http://www.w3.org/2000/svg"><g clip-path="url(#clip0)" fill="#93c5fd"><path d="M5.467 28.017h-.683a.683.683 0 0 0-.684.683v.683c0 .378.306.684.684.684h.683a.683.683 0 0 0 .683-.684V28.7a.683.683 0 0 0-.683-.683zM37.583 36.217H36.9a.683.683 0 0 0-.683.683v.683c0 .378.306.684.683.684h.683a.683.683 0 0 0 .684-.684V36.9a.683.683 0 0 0-.684-.683zM33.483 36.217H32.8a.683.683 0 0 0-.683.683v.683c0 .378.306.684.683.684h.683a.683.683 0 0 0 .684-.684V36.9a.683.683 0 0 0-.684-.683zM29.383 36.217H28.7a.683.683 0 0 0-.683.683v.683c0 .378.306.684.683.684h.683a.683.683 0 0 0 .684-.684V36.9a.683.683 0 0 0-.684-.683zM25.284 36.217H24.6a.683.683 0 0 0-.683.683v.683c0 .378.306.684.683.684h.683a.683.683 0 0 0 .684-.684V36.9a.683.683 0 0 0-.683-.683z"/><path d="M40.318 4.1H34.85V.683a.683.683 0 0 0-.813-.67l-21.184 4.1.003.013a.673.673 0 0 0-.556.657v2.734c0 .377.306.683.683.683v4.783h-1.366a.683.683 0 0 0-.683.683v2.05H9.567a.683.683 0 0 0-.683.683v5.468c0 .377.305.683.682.683h8.2a.683.683 0 0 0 .684-.683V16.4a.683.683 0 0 0-.682-.683H16.4v-2.05a.683.683 0 0 0-.682-.684H14.35V8.2h12.87l-3.89 25.283h-1.463a.683.683 0 0 0-.684.683v6.15c0 .378.306.684.683.684h18.45a.683.683 0 0 0 .684-.683v-6.15a.683.683 0 0 0-.682-.684H38.853L34.963 8.2h5.354A.683.683 0 0 0 41 7.518V4.783a.683.683 0 0 0-.682-.683zm-6.834-2.589V4.1H20.108l13.374-2.589zm-16.4 15.572v4.1H10.25v-4.1h6.834zm-2.05-2.733v1.367H12.3V14.35h2.734zm12.15 3.08l7.422 3.712-8.57 3.75 1.147-7.462zm6.025-5.074l-5.683 2.842.754-4.897 4.93 2.055zM28.494 8.91l.11-.71h4.977l.465 3.025-5.552-2.315zm11.14 25.94v4.783H22.55V34.85h17.083zm-2.164-1.367H24.714l1.002-6.517 11.699 6.157.055.36zm-.314-2.04l-10.298-5.42 8.867-3.88 1.431 9.3zm-1.759-11.434L28.178 16.4l6.188-3.094 1.031 6.704zm4.236-13.176H13.667V5.467h25.966v1.366z"/><path d="M19.24 31.754a.683.683 0 0 0-.578-.32H8.884v-5.468a.683.683 0 0 0-.683-.683H2.05a.683.683 0 0 0-.684.683v5.467H.684a.683.683 0 0 0-.621.97l3.327 7.21a1.525 1.525 0 0 1-.203.02 1.542 1.542 0 0 1-1.148-.518A2.846 2.846 0 0 0 0 38.266v1.367c.44.002.857.19 1.149.519a2.874 2.874 0 0 0 4.064.012l.013-.012a1.53 1.53 0 0 1 2.296 0 2.875 2.875 0 0 0 4.066.012l.012-.012a1.536 1.536 0 0 1 2.302 0 2.88 2.88 0 0 0 4.08 0c.293-.329.711-.518 1.152-.519v-1.367a2.85 2.85 0 0 0-2.04.848c-.293.33-.712.518-1.152.52a1.532 1.532 0 0 1-.163-.018l3.497-7.201a.683.683 0 0 0-.035-.66zM2.735 26.65h4.783v4.783H2.734V26.65zm11.853 12.293a2.696 2.696 0 0 0-1.837-.676 2.847 2.847 0 0 0-2.04.847 1.532 1.532 0 0 1-2.298 0 2.847 2.847 0 0 0-2.038-.847c-.66-.013-1.3.218-1.8.65L1.751 32.8H17.57l-2.983 6.143z"/></g><defs><clipPath id="clip0"><path fill="#fff" d="M0 0h41v41H0z"/></clipPath></defs></svg>