<svg width="41" height="41" fill="#93c5fd" xmlns="http://www.w3.org/2000/svg"><g clip-path="url(#clip0)"><mask id="a" maskUnits="userSpaceOnUse" x="-1" y="-.034" width="43" height="41" fill="#93c5fd"><path fill="#93c5fd" d="M-1-.034h43v41H-1z"/><path d="M40.352 39.21h-1.43v-4.892c0-.74-.601-1.34-1.34-1.34h-.738V17.11c0-1.617-1.779-2.912-4.155-3.113v-3.765a2.035 2.035 0 0 0-2.033-2.034h-10.39a2.035 2.035 0 0 0-2.032 2.034v7.228c-2.377.201-4.156 1.496-4.156 3.113v8.94h-2.473V19.081a.648.648 0 0 0-.648-.648h-.737V1.614a.648.648 0 0 0-.648-.648h-2.77a.648.648 0 0 0-.649.648v16.819H4.68V5.77a.648.648 0 1 0-1.296 0v12.663h-1.35a.648.648 0 0 0-.648.648v20.13H.648a.648.648 0 1 0 0 1.296h39.704a.648.648 0 0 0 0-1.296zM7.449 2.263h1.475v1.474H7.449V2.262zm0 2.77h1.475v13.4H7.449v-13.4zm2.86 34.179H2.68V19.729h7.628V39.21zm25.24-22.1v.322h-.738a.648.648 0 0 0 0 1.296h.737v11.478h-7.015V18.729h3.508a.648.648 0 1 0 0-1.296h-3.508v-.322c0-.983 1.64-1.845 3.508-1.845s3.507.862 3.507 1.845zm0 14.392v1.474h-7.016v-1.474h7.015zM15.373 20.574c0-.983 1.64-1.845 3.508-1.845s3.507.862 3.507 1.845v.322h-.737a.648.648 0 0 0 0 1.296h.737V33.67h-7.015V22.192h3.508a.648.648 0 1 0 0-1.296h-3.508v-.322zm7.015 14.392v1.474h-7.015v-1.474h7.015zM11.605 30.81h2.473v1.475h-2.473V30.81zM12 37.78v1.43h-.395v-5.63h2.473v2.86h-.737c-.74 0-1.34.602-1.34 1.34zm13.16 1.43H13.296v-1.43c0-.024.02-.044.045-.044H25.16v1.475zm0-4.892v2.122h-1.475V20.574c0-1.617-1.78-2.912-4.155-3.113v-7.228c0-.407.33-.738.737-.738h10.389c.406 0 .737.331.737.738v3.765c-2.376.201-4.156 1.496-4.156 3.113v15.866H26.5c-.74 0-1.34.602-1.34 1.34zm12.466 4.893h-11.17v-4.893c0-.025.02-.045.044-.045h11.082c.024 0 .044.02.044.045v4.893z"/></mask><path d="M40.352 39.21h-1.43v-4.892c0-.74-.601-1.34-1.34-1.34h-.738V17.11c0-1.617-1.779-2.912-4.155-3.113v-3.765a2.035 2.035 0 0 0-2.033-2.034h-10.39a2.035 2.035 0 0 0-2.032 2.034v7.228c-2.377.201-4.156 1.496-4.156 3.113v8.94h-2.473V19.081a.648.648 0 0 0-.648-.648h-.737V1.614a.648.648 0 0 0-.648-.648h-2.77a.648.648 0 0 0-.649.648v16.819H4.68V5.77a.648.648 0 1 0-1.296 0v12.663h-1.35a.648.648 0 0 0-.648.648v20.13H.648a.648.648 0 1 0 0 1.296h39.704a.648.648 0 0 0 0-1.296zM7.449 2.263h1.475v1.474H7.449V2.262zm0 2.77h1.475v13.4H7.449v-13.4zm2.86 34.179H2.68V19.729h7.628V39.21zm25.24-22.1v.322h-.738a.648.648 0 0 0 0 1.296h.737v11.478h-7.015V18.729h3.508a.648.648 0 1 0 0-1.296h-3.508v-.322c0-.983 1.64-1.845 3.508-1.845s3.507.862 3.507 1.845zm0 14.392v1.474h-7.016v-1.474h7.015zM15.373 20.574c0-.983 1.64-1.845 3.508-1.845s3.507.862 3.507 1.845v.322h-.737a.648.648 0 0 0 0 1.296h.737V33.67h-7.015V22.192h3.508a.648.648 0 1 0 0-1.296h-3.508v-.322zm7.015 14.392v1.474h-7.015v-1.474h7.015zM11.605 30.81h2.473v1.475h-2.473V30.81zM12 37.78v1.43h-.395v-5.63h2.473v2.86h-.737c-.74 0-1.34.602-1.34 1.34zm13.16 1.43H13.296v-1.43c0-.024.02-.044.045-.044H25.16v1.475zm0-4.892v2.122h-1.475V20.574c0-1.617-1.78-2.912-4.155-3.113v-7.228c0-.407.33-.738.737-.738h10.389c.406 0 .737.331.737.738v3.765c-2.376.201-4.156 1.496-4.156 3.113v15.866H26.5c-.74 0-1.34.602-1.34 1.34zm12.466 4.893h-11.17v-4.893c0-.025.02-.045.044-.045h11.082c.024 0 .044.02.044.045v4.893z" fill="#93c5fd"/><path d="M40.352 39.21h-1.43v-4.892c0-.74-.601-1.34-1.34-1.34h-.738V17.11c0-1.617-1.779-2.912-4.155-3.113v-3.765a2.035 2.035 0 0 0-2.033-2.034h-10.39a2.035 2.035 0 0 0-2.032 2.034v7.228c-2.377.201-4.156 1.496-4.156 3.113v8.94h-2.473V19.081a.648.648 0 0 0-.648-.648h-.737V1.614a.648.648 0 0 0-.648-.648h-2.77a.648.648 0 0 0-.649.648v16.819H4.68V5.77a.648.648 0 1 0-1.296 0v12.663h-1.35a.648.648 0 0 0-.648.648v20.13H.648a.648.648 0 1 0 0 1.296h39.704a.648.648 0 0 0 0-1.296zM7.449 2.263h1.475v1.474H7.449V2.262zm0 2.77h1.475v13.4H7.449v-13.4zm2.86 34.179H2.68V19.729h7.628V39.21zm25.24-22.1v.322h-.738a.648.648 0 0 0 0 1.296h.737v11.478h-7.015V18.729h3.508a.648.648 0 1 0 0-1.296h-3.508v-.322c0-.983 1.64-1.845 3.508-1.845s3.507.862 3.507 1.845zm0 14.392v1.474h-7.016v-1.474h7.015zM15.373 20.574c0-.983 1.64-1.845 3.508-1.845s3.507.862 3.507 1.845v.322h-.737a.648.648 0 0 0 0 1.296h.737V33.67h-7.015V22.192h3.508a.648.648 0 1 0 0-1.296h-3.508v-.322zm7.015 14.392v1.474h-7.015v-1.474h7.015zM11.605 30.81h2.473v1.475h-2.473V30.81zM12 37.78v1.43h-.395v-5.63h2.473v2.86h-.737c-.74 0-1.34.602-1.34 1.34zm13.16 1.43H13.296v-1.43c0-.024.02-.044.045-.044H25.16v1.475zm0-4.892v2.122h-1.475V20.574c0-1.617-1.78-2.912-4.155-3.113v-7.228c0-.407.33-.738.737-.738h10.389c.406 0 .737.331.737.738v3.765c-2.376.201-4.156 1.496-4.156 3.113v15.866H26.5c-.74 0-1.34.602-1.34 1.34zm12.466 4.893h-11.17v-4.893c0-.025.02-.045.044-.045h11.082c.024 0 .044.02.044.045v4.893z" stroke="#93c5fd" stroke-width=".2" mask="url(#a)"/></g><defs><clipPath id="clip0"><path fill="#93c5fd" d="M0 0h41v41H0z"/></clipPath></defs></svg>